# Blender v3.1.2 OBJ File: 'teatr_Ostrovskogo.blend'
# www.blender.org
mtllib Rounds.mtl
o Плоскость.011_Плоскость.012
v 196.882492 0.000000 -14.811860
v -196.882492 0.000000 -14.811826
v 196.882492 0.000000 14.811826
v -196.882492 0.000000 14.811860
v 196.882492 0.000000 12.722942
v 196.882492 0.000000 9.786571
v 196.882492 0.000000 3.199515
v 196.882492 0.000000 -0.318973
v 196.882492 0.000000 -8.841526
v 196.882492 0.000000 -11.457772
v -196.882492 0.000000 -11.457738
v -196.882492 0.000000 -8.841492
v -196.882492 0.000000 -0.318938
v -196.882492 0.000000 3.199549
v -196.882492 0.000000 9.786605
v -196.882492 0.000000 12.722977
vt 0.000000 1.000000
vt 1.000000 1.000000
vt 1.000000 1.000000
vt 0.000000 1.000000
vt 0.000000 0.000000
vt 1.000000 0.000000
vt 1.000000 0.285714
vt 0.000000 0.285714
vt 0.000000 0.428571
vt 1.000000 0.428571
vt 1.000000 0.571429
vt 0.000000 0.571429
vt 0.000000 0.714286
vt 1.000000 0.714286
vt 1.000000 0.857143
vt 0.000000 0.857143
vn 0.0000 1.0000 0.0000
usemtl Материал.024
s 1
f 5/1/1 16/2/1 4/3/1 3/4/1
f 1/5/1 2/6/1 11/7/1 10/8/1
f 9/9/1 12/10/1 13/11/1 8/12/1
f 7/13/1 14/14/1 15/15/1 6/16/1
usemtl Материал.025
f 10/8/1 11/7/1 12/10/1 9/9/1
f 8/12/1 13/11/1 14/14/1 7/13/1
f 6/16/1 15/15/1 16/2/1 5/1/1
